<svg width="22" height="26" viewBox="0 0 22 26" fill="none" xmlns="http://www.w3.org/2000/svg">
<path d="M10.4467 8.18415L10.4467 8.18415C10.3138 8.18993 10.1829 8.15 10.0759 8.07103C9.96887 7.99206 9.89212 7.8788 9.85843 7.75012C9.58281 6.6973 9.87619 5.43183 10.6282 4.36215C11.3219 3.37441 12.5313 2.60157 13.6465 2.43904C13.6465 2.43903 13.6466 2.43903 13.6466 2.43902L13.661 2.53798C13.9093 2.50128 14.1452 2.66319 14.2006 2.90872C14.4433 3.98379 14.1801 5.20481 13.4785 6.25879L10.4467 8.18415ZM10.4467 8.18415C10.4791 8.18273 10.5116 8.18076 10.5437 8.17835L10.5439 8.17834C11.6857 8.09281 12.8672 7.35918 13.5618 6.31415L10.4467 8.18415ZM11.5804 5.03134L11.5805 5.03131C11.9625 4.48729 12.5976 4.00543 13.2267 3.75433C13.2171 4.62106 12.8035 5.35328 12.5929 5.66967L12.5928 5.66971C12.1922 6.27238 11.5555 6.74081 10.9172 6.93083C10.9131 6.0638 11.4018 5.28551 11.5804 5.03134Z" fill="black" stroke="black" stroke-width="0.2"/>
<path d="M12.0191 20.7633L12.0194 20.7633C12.9845 20.691 13.5821 20.9128 14.0532 21.0876C14.4194 21.2235 14.6902 21.3231 15.0901 21.2932L15.1096 21.2916C15.5946 21.2511 16.0528 20.9187 16.4773 20.4339C16.8997 19.9515 17.2745 19.3348 17.5955 18.7571C17.9577 18.0995 18.1333 17.7113 18.3573 17.1183C16.3469 16.2112 15.2355 13.9211 15.8424 11.7316C16.0682 10.9137 16.5156 10.1978 17.1499 9.63014C16.3459 8.96898 15.3941 8.62843 14.5137 8.69438C13.7396 8.75237 13.2247 8.99253 12.7142 9.23117L12.7092 9.23351C12.2533 9.44662 11.7651 9.67482 11.1483 9.72103C10.4967 9.76984 9.92031 9.61078 9.38015 9.46172L9.37441 9.46014L12.0191 20.7633ZM12.0191 20.7633L11.9895 20.7656L11.9892 20.7656M12.0191 20.7633L11.9892 20.7656M11.9892 20.7656C11.0189 20.8432 10.4497 21.1504 10.0008 21.3927M11.9892 20.7656L10.0008 21.3927M10.0008 21.3927C9.64751 21.5834 9.38546 21.7238 8.9784 21.7543M10.0008 21.3927L8.9784 21.7543M8.9784 21.7543L8.95695 21.7558C8.95688 21.7558 8.95681 21.7558 8.95674 21.7558C8.45346 21.7891 7.95499 21.5442 7.4796 21.1551C7.00542 20.767 6.56773 20.2464 6.18828 19.754C4.64577 17.7483 3.84805 15.296 4.04553 13.1996M8.9784 21.7543L4.04553 13.1996M4.04553 13.1996C4.11185 12.5093 4.27651 11.9229 4.53103 11.455C5.24303 10.1538 6.44441 9.29882 7.65607 9.20806C8.28661 9.16083 8.80631 9.30342 9.3744 9.46014L4.04553 13.1996ZM19.6223 16.5127L19.6223 16.5127C19.5864 16.4418 19.5364 16.3791 19.4753 16.3283C19.4142 16.2775 19.3434 16.2398 19.2672 16.2174C17.2933 15.6374 16.5321 13.6002 16.964 12.042L16.964 12.0419C17.1765 11.2723 17.6593 10.6225 18.3635 10.1628L18.3635 10.1628C18.4345 10.1164 18.4946 10.055 18.5394 9.983C18.5842 9.91098 18.6127 9.83003 18.623 9.74583C18.6332 9.66162 18.6249 9.5762 18.5987 9.49553C18.5725 9.41486 18.5289 9.3409 18.4711 9.27882L18.4711 9.27879C17.3573 8.0839 15.8472 7.42749 14.4267 7.53389C13.4387 7.6079 12.7873 7.91238 12.2232 8.17599L12.2214 8.17687C11.804 8.37193 11.4625 8.53043 11.0613 8.56047C10.6144 8.59395 10.1939 8.47899 9.68391 8.33827L9.67984 8.33715C9.08884 8.17408 8.40352 7.985 7.56914 8.0475C5.95471 8.16843 4.40271 9.26491 3.50944 10.8975L3.50933 10.8977C3.17619 11.5101 2.96784 12.2478 2.887 13.0892L2.88699 13.0894C2.66156 15.4824 3.55381 18.2373 5.26615 20.4639L5.26621 20.464C5.74937 21.091 6.2947 21.7286 6.91481 22.1968C7.53597 22.6659 8.23862 22.9697 9.03339 22.917L9.03383 22.917L9.06498 22.9148L9.06539 22.9147C9.72212 22.8656 10.151 22.6341 10.5509 22.4183L10.5536 22.4168L10.5536 22.4168C10.9723 22.1909 11.3563 21.9837 12.0823 21.9257L12.1064 21.9239C12.818 21.8706 13.2149 22.0179 13.6483 22.1787L13.6511 22.1798C14.0709 22.3356 14.5215 22.5028 15.1771 22.4537L15.1777 22.4537L15.2067 22.4513L15.2069 22.4513C15.9873 22.3862 16.6387 21.9617 17.1924 21.3791C17.7457 20.7969 18.2091 20.0491 18.6137 19.3207L18.6139 19.3204C19.1132 18.4142 19.2957 17.9544 19.6505 16.9736L19.6505 16.9735C19.6775 16.8988 19.6889 16.8194 19.684 16.7402C19.6792 16.6609 19.6582 16.5835 19.6223 16.5127Z" fill="black" stroke="black" stroke-width="0.2"/>
</svg>
