<svg width="23" height="24" viewBox="0 0 23 24" fill="none" xmlns="http://www.w3.org/2000/svg">
<g id="Frame" clip-path="url(#clip0_3003_515)">
<g id="Group">
<path id="Vector" d="M6.48002 13.0781L15.7703 14.3358M8.44763 10.191L8.0284 13.2877M11.754 9.06182L11.1252 13.7069M15.0604 7.93267L14.2219 14.1262M10.119 21.1392L10.4963 18.3521L4.45764 17.5346C2.74735 17.303 1.54858 15.7289 1.78012 14.0186L3.0378 4.72834C3.26934 3.01805 4.84349 1.81929 6.55378 2.05082L18.6311 3.68581C20.3414 3.91734 21.5402 5.49149 21.3086 7.20179L20.051 16.492C19.8194 18.2023 18.2453 19.4011 16.535 19.1696L13.5931 18.7713M7.02225 20.7199L13.2158 21.5584" stroke="black" stroke-width="1.5625" stroke-miterlimit="10" stroke-linecap="round" stroke-linejoin="round"/>
</g>
</g>
<defs>
<clipPath id="clip0_3003_515">
<rect width="20" height="20" fill="white" transform="translate(2.78906 0.752563) rotate(7.70964)"/>
</clipPath>
</defs>
</svg>
