<svg width="323" height="185" viewBox="0 0 323 185" fill="none" xmlns="http://www.w3.org/2000/svg">
<g filter="url(#filter0_d_3015_593)">
<path d="M25 41C25 29.9543 33.9543 21 45 21H278C289.046 21 298 29.9543 298 41V136C298 147.046 289.046 156 278 156H45C33.9543 156 25 147.046 25 136V41Z" fill="url(#paint0_radial_3015_593)"/>
<rect x="40" y="36" width="243" height="105" rx="10" fill="white"/>
<path d="M53.5254 55H50.6982V47.9541H53.5107C54.7607 47.9541 55.5811 48.6475 55.5811 49.7119C55.5811 50.459 55.0293 51.1279 54.3262 51.2451V51.2842C55.2832 51.3916 55.9277 52.0703 55.9277 53.0078C55.9277 54.248 55.0244 55 53.5254 55ZM51.792 48.8477V50.9521H53.0176C53.9648 50.9521 54.4873 50.5615 54.4873 49.8633C54.4873 49.209 54.0381 48.8477 53.2471 48.8477H51.792ZM51.792 54.1064H53.3008C54.2871 54.1064 54.8096 53.7012 54.8096 52.9395C54.8096 52.1777 54.2725 51.7871 53.2373 51.7871H51.792V54.1064ZM58.6377 54.2529C59.375 54.2529 59.9512 53.7451 59.9512 53.0762V52.6709L58.6865 52.749C58.0566 52.793 57.7002 53.0713 57.7002 53.5107C57.7002 53.96 58.0713 54.2529 58.6377 54.2529ZM58.3447 55.0879C57.3389 55.0879 56.6357 54.4629 56.6357 53.54C56.6357 52.6416 57.3242 52.0898 58.5449 52.0215L59.9512 51.9385V51.543C59.9512 50.9717 59.5654 50.6299 58.9209 50.6299C58.3105 50.6299 57.9297 50.9229 57.8369 51.3818H56.8408C56.8994 50.4541 57.6904 49.7705 58.96 49.7705C60.2051 49.7705 61.001 50.4297 61.001 51.46V55H59.9902V54.1553H59.9658C59.668 54.7266 59.0186 55.0879 58.3447 55.0879ZM63.125 55H62.1094V49.8633H63.4326L65.0781 53.6279H65.1172L66.7725 49.8633H68.0664V55H67.041V51.4355H67.0068L65.4688 54.7998H64.6973L63.1592 51.4355H63.125V55ZM74.5557 55V50.6982H72.2803V55H71.2305V49.8633H75.6104V55H74.5557ZM78.96 55.0977C77.4902 55.0977 76.5234 54.0869 76.5234 52.4316C76.5234 50.7812 77.4951 49.7705 78.96 49.7705C80.4248 49.7705 81.3965 50.7812 81.3965 52.4316C81.3965 54.0869 80.4297 55.0977 78.96 55.0977ZM78.96 54.2285C79.79 54.2285 80.3223 53.5742 80.3223 52.4316C80.3223 51.2939 79.7852 50.6396 78.96 50.6396C78.1348 50.6396 77.5977 51.2939 77.5977 52.4316C77.5977 53.5742 78.1348 54.2285 78.96 54.2285ZM85.6348 54.165V50.6982H83.8477L83.7061 52.6611C83.667 53.2666 83.54 53.7939 83.3057 54.126V54.165H85.6348ZM82.7148 56.3477H81.7432V54.165H82.1582C82.5342 53.9307 82.7051 53.3105 82.7539 52.6172L82.9395 49.8633H86.6846V54.165H87.4805V56.3477H86.5039V55H82.7148V56.3477ZM90.1221 53.1104H90.0977L88.96 55H87.8174L89.5117 52.4365L87.8418 49.8633H89.0234L90.1465 51.7236H90.166L91.2744 49.8633H92.4365L90.752 52.4023L92.417 55H91.2549L90.1221 53.1104ZM95.2881 55.0977C93.8184 55.0977 92.8516 54.0869 92.8516 52.4316C92.8516 50.7812 93.8232 49.7705 95.2881 49.7705C96.7529 49.7705 97.7246 50.7812 97.7246 52.4316C97.7246 54.0869 96.7578 55.0977 95.2881 55.0977ZM95.2881 54.2285C96.1182 54.2285 96.6504 53.5742 96.6504 52.4316C96.6504 51.2939 96.1133 50.6396 95.2881 50.6396C94.4629 50.6396 93.9258 51.2939 93.9258 52.4316C93.9258 53.5742 94.4629 54.2285 95.2881 54.2285ZM101.963 54.165V50.6982H100.176L100.034 52.6611C99.9951 53.2666 99.8682 53.7939 99.6338 54.126V54.165H101.963ZM99.043 56.3477H98.0713V54.165H98.4863C98.8623 53.9307 99.0332 53.3105 99.082 52.6172L99.2676 49.8633H103.013V54.165H103.809V56.3477H102.832V55H99.043V56.3477ZM105.562 55H104.521V49.8633H105.562V53.4619H105.601L107.974 49.8633H109.014V55H107.974V51.3916H107.935L105.562 55ZM114.053 49.8633V50.6982H112.441V55H111.392V50.6982H109.78V49.8633H114.053Z" fill="#222222"/>
<rect x="50" y="62" width="191" height="14" fill="#F0F0F0"/>
<rect x="50" y="81" width="59" height="6" fill="#F0F0F0"/>
<rect x="114" y="81" width="29" height="6" fill="#F0F0F0"/>
<rect x="148" y="81" width="59" height="6" fill="#F0F0F0"/>
<rect x="212" y="81" width="42" height="6" fill="#F0F0F0"/>
<rect x="50" y="92" width="42" height="6" fill="#F0F0F0"/>
<rect x="97" y="92" width="27" height="6" fill="#F0F0F0"/>
<rect x="129" y="92" width="45" height="6" fill="#F0F0F0"/>
<rect x="179" y="92" width="45" height="6" fill="#F0F0F0"/>
<rect x="50" y="103" width="45" height="6" fill="#F0F0F0"/>
<rect x="168" y="109" width="68" height="6" transform="rotate(180 168 109)" fill="#F0F0F0"/>
<rect x="202" y="109" width="29" height="6" transform="rotate(180 202 109)" fill="#F0F0F0"/>
<rect x="249" y="109" width="42" height="6" transform="rotate(180 249 109)" fill="#F0F0F0"/>
<rect x="114" y="120" width="64" height="6" transform="rotate(180 114 120)" fill="#F0F0F0"/>
<rect x="153" y="120" width="34" height="6" transform="rotate(180 153 120)" fill="#F0F0F0"/>
<rect x="224" y="120" width="66" height="6" transform="rotate(180 224 120)" fill="#F0F0F0"/>
<rect x="264" y="120" width="35" height="6" transform="rotate(180 264 120)" fill="#F0F0F0"/>
<rect x="85" y="131" width="35" height="6" transform="rotate(180 85 131)" fill="#F0F0F0"/>
<rect x="158" y="131" width="68" height="6" transform="rotate(180 158 131)" fill="#F0F0F0"/>
<rect x="191" y="131" width="28" height="6" transform="rotate(180 191 131)" fill="#F0F0F0"/>
<rect x="245" y="131" width="49" height="6" transform="rotate(180 245 131)" fill="#F0F0F0"/>
</g>
<defs>
<filter id="filter0_d_3015_593" x="0" y="0" width="323" height="185" filterUnits="userSpaceOnUse" color-interpolation-filters="sRGB">
<feFlood flood-opacity="0" result="BackgroundImageFix"/>
<feColorMatrix in="SourceAlpha" type="matrix" values="0 0 0 0 0 0 0 0 0 0 0 0 0 0 0 0 0 0 127 0" result="hardAlpha"/>
<feOffset dy="4"/>
<feGaussianBlur stdDeviation="12.5"/>
<feComposite in2="hardAlpha" operator="out"/>
<feColorMatrix type="matrix" values="0 0 0 0 0 0 0 0 0 0 0 0 0 0 0 0 0 0 0.2 0"/>
<feBlend mode="normal" in2="BackgroundImageFix" result="effect1_dropShadow_3015_593"/>
<feBlend mode="normal" in="SourceGraphic" in2="effect1_dropShadow_3015_593" result="shape"/>
</filter>
<radialGradient id="paint0_radial_3015_593" cx="0" cy="0" r="1" gradientUnits="userSpaceOnUse" gradientTransform="translate(281.97 139.315) rotate(-145.034) scale(113.811 119.395)">
<stop stop-color="#282D3E"/>
<stop offset="1" stop-color="#0E111D"/>
</radialGradient>
</defs>
</svg>
