<svg width="24" height="26" viewBox="0 0 24 26" fill="none" xmlns="http://www.w3.org/2000/svg">
<g clip-path="url(#clip0_3057_151)">
<mask id="mask0_3057_151" style="mask-type:luminance" maskUnits="userSpaceOnUse" x="0" y="1" width="24" height="23">
<path d="M0.19757 1.57825L23.1976 1.57652L23.1992 23.5765L0.199219 23.5782L0.19757 1.57825Z" fill="white"/>
</mask>
<g mask="url(#mask0_3057_151)">
<path d="M11.7578 16.53L18.8281 16.5295C20.1225 16.5294 21.1718 15.48 21.1717 14.1856L21.1715 11.4512C21.1714 10.1568 20.122 9.10755 18.8275 9.10765L15.4682 9.1079" stroke="black" stroke-width="1.56" stroke-miterlimit="10" stroke-linecap="round" stroke-linejoin="round"/>
<path d="M11.7572 9.1082L4.68694 9.10873C3.39253 9.10883 2.34327 10.1582 2.34337 11.4527L2.34357 14.187C2.34367 15.4814 3.39308 16.5307 4.68749 16.5306L8.04686 16.5303" stroke="black" stroke-width="1.56" stroke-miterlimit="10" stroke-linecap="round" stroke-linejoin="round"/>
<path d="M8.04589 9.10844L8.04564 5.74907C8.04554 4.45466 9.0948 3.40525 10.3892 3.40516L13.1236 3.40495C14.418 3.40485 15.4674 4.45411 15.4675 5.74852L15.468 12.8188L8.04617 12.8194L8.0467 19.8897C8.0468 21.1841 9.09621 22.2333 10.3906 22.2332L13.125 22.233C14.4194 22.2329 15.4686 21.1835 15.4686 19.8891L15.4683 16.5297" stroke="black" stroke-width="1.56" stroke-miterlimit="10" stroke-linecap="round" stroke-linejoin="round"/>
<path d="M11.4172 6.57742C11.4172 6.45594 11.3187 6.35743 11.1972 6.35744C11.0757 6.35745 10.9772 6.45597 10.9772 6.57746C10.9772 6.69894 11.0757 6.79745 11.1972 6.79744C11.3187 6.79743 11.4172 6.69891 11.4172 6.57742Z" fill="black" stroke="black" stroke-width="1.56"/>
<path d="M11.9791 19.5773C11.9792 19.6988 12.0777 19.7973 12.1992 19.7973C12.3206 19.7973 12.4192 19.6988 12.4191 19.5773C12.4191 19.4558 12.3206 19.3573 12.1991 19.3573C12.0776 19.3573 11.9791 19.4558 11.9791 19.5773Z" fill="black" stroke="black" stroke-width="1.56"/>
</g>
</g>
<defs>
<clipPath id="clip0_3057_151">
<rect width="23" height="25" fill="white" transform="translate(0.226562 0.449097)"/>
</clipPath>
</defs>
</svg>
