<svg width="23" height="23" viewBox="0 0 23 23" fill="none" xmlns="http://www.w3.org/2000/svg">
<g id="Frame">
<g id="Group">
<path id="Vector" d="M17.8502 15.5385C18.1513 14.9589 18.275 14.3034 18.2056 13.654C18.0096 11.8232 16.3671 10.4983 14.5365 10.6943C14.5007 10.6981 14.4687 10.7108 14.4334 10.7158C14.3883 10.5388 14.3481 10.3584 14.2939 10.1886L16.3731 9.05471L15.7345 7.88443L13.7919 8.94482C13.2208 7.81156 12.429 6.9234 11.5287 6.39784L12.414 3.38933L11.1352 3.01269L10.2791 5.92255C9.96795 5.86675 9.64974 5.85354 9.32937 5.88783C9.009 5.92213 8.70037 6.00223 8.40834 6.1228L6.95588 3.46007L5.7854 4.09868L7.28755 6.85164C6.51834 7.55591 5.93307 8.59169 5.61479 9.81994L3.49119 9.19482L3.11478 10.4738L5.3876 11.1418C5.34908 11.5427 5.33685 11.9456 5.35097 12.348L3.33906 12.5633L3.48099 13.8892L5.49289 13.6738C5.56443 14.0701 5.66167 14.4612 5.78399 14.8449L3.70468 15.9788L4.34269 17.1494L6.28586 16.0889C7.29095 18.0843 8.97925 19.3349 10.7485 19.1455C11.9455 19.0174 12.9635 18.247 13.6725 17.0946C14.1586 17.2876 14.6907 17.3825 15.2461 17.323C15.9213 17.2508 16.526 16.9792 17.0132 16.5761L19.0907 18.2525L19.9278 17.2147L17.8502 15.5385ZM9.47129 7.21366C10.3356 7.12114 11.193 7.60161 11.887 8.44011C11.2172 8.85128 10.4643 9.10803 9.68293 9.19168C8.90154 9.27532 8.11132 9.18376 7.36976 8.92366C7.86982 7.95613 8.60703 7.30618 9.47129 7.21366ZM12.5647 16.374C12.0711 17.1954 11.3904 17.736 10.6066 17.8199C8.8103 18.0122 7.03219 15.7459 6.72452 12.8718C6.62153 11.9097 6.69706 10.9824 6.90658 10.1624C7.84058 10.4964 8.83795 10.6151 9.82427 10.5098C10.8106 10.4044 11.7604 10.0777 12.6028 9.55405C12.8452 10.0388 13.0363 10.5827 13.1744 11.1625C12.1005 11.8101 11.4345 13.0338 11.5769 14.3636C11.6622 15.161 12.0335 15.852 12.5647 16.374ZM15.1042 15.9974C14.0057 16.115 13.0202 15.3196 12.9027 14.2216C12.785 13.1225 13.5799 12.1377 14.6785 12.0201C15.7768 11.9026 16.7623 12.6968 16.88 13.7959C16.9975 14.8938 16.2025 15.8798 15.1042 15.9974Z" fill="black"/>
</g>
</g>
</svg>
