<svg width="20" height="20" viewBox="0 0 20 20" fill="none" xmlns="http://www.w3.org/2000/svg">
<path d="M14.9388 6.51348L12.2972 6.11072L11.1159 3.59916C10.6598 2.62929 9.34039 2.62893 8.88408 3.59912L7.70274 6.11072L5.06121 6.51348C4.04121 6.66897 3.63324 7.98546 4.37155 8.74068L6.28299 10.6957L5.83177 13.4562C5.65752 14.522 6.72458 15.3361 7.63736 14.8327L9.99998 13.5293L12.3627 14.8327C13.2765 15.3367 14.3421 14.5197 14.1682 13.4562L13.7169 10.6957L15.6284 8.74068C16.3664 7.98572 15.9592 6.66907 14.9388 6.51348ZM6.21033 3.15183L5.57249 2.23069C5.39933 1.9807 5.0658 1.92525 4.82755 2.10694C4.58927 2.2886 4.53646 2.63857 4.70958 2.88859L5.34742 3.80973C5.52067 4.05986 5.85424 4.11511 6.09236 3.93348C6.33064 3.75186 6.38346 3.40186 6.21033 3.15183ZM4.09364 11.4069C4.00261 11.1131 3.7018 10.9521 3.42161 11.0477L2.36865 11.4067C2.08852 11.5021 1.93524 11.8179 2.02624 12.1118C2.11743 12.4063 2.41886 12.5665 2.69827 12.4711L3.75127 12.1121C4.03139 12.0167 4.18468 11.7009 4.09364 11.4069ZM15.1724 2.10694C14.9342 1.92525 14.6007 1.98067 14.4275 2.23069L13.7897 3.15183C13.6165 3.40186 13.6694 3.75186 13.9076 3.93348C14.146 4.11521 14.4795 4.05966 14.6526 3.80973L15.2904 2.88859C15.4636 2.63857 15.4107 2.2886 15.1724 2.10694ZM17.6314 11.4067L16.5784 11.0477C16.2982 10.952 15.9974 11.113 15.9063 11.4069C15.8153 11.7009 15.9686 12.0166 16.2487 12.1121L17.3017 12.4711C17.5813 12.5665 17.8826 12.4062 17.9738 12.1118C18.0648 11.8179 17.9115 11.5022 17.6314 11.4067ZM9.99998 15.745C9.70545 15.745 9.46667 15.9956 9.46667 16.3046V17.4404C9.46667 17.7495 9.70545 18 9.99998 18C10.2945 18 10.5333 17.7495 10.5333 17.4404V16.3046C10.5333 15.9956 10.2945 15.745 9.99998 15.745Z" fill="white"/>
</svg>
