<svg width="169" height="169" viewBox="0 0 169 169" fill="none" xmlns="http://www.w3.org/2000/svg">
<circle opacity="0.1" cx="84.5" cy="84.5" r="84.5" fill="#B1D5FF"/>
<circle opacity="0.2" cx="84.5001" cy="84.5001" r="64.8107" fill="#B1D5FF"/>
<circle opacity="0.3" cx="84.5001" cy="84.5001" r="43.4806" fill="#B1D5FF"/>
<g filter="url(#filter0_d_5002_231)">
<rect x="54.7461" y="54.7471" width="59.5055" height="59.5055" rx="29.5048" fill="white"/>
<mask id="mask0_5002_231" style="mask-type:luminance" maskUnits="userSpaceOnUse" x="62" y="78" width="45" height="12">
<path d="M107 78H62V89.8498H107V78Z" fill="white"/>
</mask>
<g mask="url(#mask0_5002_231)">
<path d="M104.983 83.1614H99.291V87.3159H104.983V83.1614Z" fill="white"/>
<path d="M102.166 80.3704C99.501 80.3704 97.332 82.495 97.332 85.1101C97.332 87.7252 99.501 89.8499 102.166 89.8499C104.831 89.8499 107 87.7252 107 85.1101C107 82.495 104.831 80.3704 102.166 80.3704ZM101.464 86.3966L100.793 85.5456L100.545 85.8101V86.3964H99.8882V84.0511H100.545V85.0263L101.454 84.0511H102.184L101.226 85.0898L102.235 86.3964H101.464L101.464 86.3966ZM104.477 86.3966H102.376V85.9812L103.559 84.5775H102.405V84.0512H104.427V84.4666L103.244 85.8703H104.477V86.3966Z" fill="#F57D40"/>
<path d="M66.485 86.2418C66.5086 86.5454 66.3907 86.8254 66.1548 87.0355C65.9192 87.2223 65.636 87.3158 65.3532 87.3158C65.1645 87.3158 64.9523 87.2691 64.7872 87.1524C64.6694 87.0589 64.5985 86.8955 64.5985 86.7321C64.5985 86.3586 64.8344 86.1718 65.2823 86.1718H66.485V86.2418ZM68.1121 82.2492C67.8057 81.9689 67.452 81.7591 67.051 81.6421C66.603 81.5022 66.1313 81.4322 65.6597 81.4322C65.0231 81.4088 64.3865 81.549 63.8204 81.8056C63.2544 82.0859 62.7358 82.4595 62.2878 82.9032L63.4905 84.4907C63.7734 84.2338 64.0799 84.0239 64.3866 83.837C64.6931 83.6736 65.0232 83.6035 65.3534 83.6035C65.6598 83.5801 65.99 83.6736 66.2259 83.8837C66.3908 84.0705 66.4851 84.3039 66.4851 84.5374V84.6541H64.9288C64.0329 84.6541 63.3019 84.8409 62.7831 85.2147C62.2641 85.5879 61.9577 86.1952 62.0047 86.8254C62.0047 87.129 62.0519 87.4093 62.1697 87.6894C62.2641 87.9694 62.4293 88.2029 62.6415 88.4131C62.8771 88.6232 63.1366 88.81 63.4431 88.9035C63.7968 89.0203 64.1741 89.0901 64.5515 89.0901C64.9757 89.0901 65.3767 89.0203 65.7776 88.8803C66.1313 88.7634 66.4378 88.5766 66.7207 88.3197V88.9036H69.0552V84.6541C69.0786 84.164 68.9843 83.6969 68.8193 83.2299C68.6543 82.8798 68.4185 82.5296 68.1118 82.2493" fill="#53C95A"/>
<path d="M71.9458 82.3894V81.619H69.5879V88.927H72.1581V85.5881C72.1581 84.9344 72.3231 84.4907 72.6298 84.2338C73.0071 83.9539 73.4786 83.8137 73.9502 83.837H74.5634V81.619C74.3275 81.5489 74.0918 81.5022 73.8324 81.5022C73.1014 81.5022 72.4174 81.8289 71.9458 82.3894Z" fill="#53C95A"/>
<path d="M80.1942 85.9383C80.1236 86.1251 80.0055 86.2887 79.864 86.4288C79.7225 86.5688 79.5811 86.6623 79.3924 86.7087C79.2273 86.7788 79.0387 86.8022 78.8501 86.8022C78.6614 86.8022 78.4963 86.7788 78.3313 86.7087C78.1662 86.6623 78.0012 86.5688 77.8597 86.4288C77.7182 86.2887 77.6001 86.1251 77.5294 85.9617C77.4351 85.7515 77.3878 85.5183 77.4114 85.2614C77.4114 85.0279 77.4586 84.7944 77.5294 84.5608C77.6001 84.374 77.7182 84.2108 77.8597 84.0707C78.0012 83.9306 78.1425 83.8372 78.3313 83.7671C78.4962 83.697 78.6849 83.6736 78.8501 83.6736C79.0387 83.6736 79.2038 83.697 79.3924 83.7671C79.5811 83.8372 79.7225 83.9305 79.864 84.0707C80.0055 84.2108 80.1236 84.374 80.1942 84.5608C80.2886 84.771 80.3356 85.0045 80.3119 85.238C80.3119 85.4949 80.265 85.7282 80.1942 85.9383ZM81.9391 82.5296C81.6327 82.1793 81.2316 81.9225 80.8075 81.7359C80.3591 81.5491 79.864 81.4556 79.3688 81.4556C78.6614 81.4322 77.9776 81.6658 77.4589 82.1559V78H74.8887V88.9502H77.2466V88.2029C77.7183 88.81 78.4492 89.1137 79.3924 89.1137C79.8875 89.1137 80.3827 89.0202 80.8306 88.8334C81.2552 88.6466 81.656 88.3897 81.9627 88.0394C82.2928 87.6893 82.5286 87.2689 82.6937 86.8253C82.8823 86.3351 82.9767 85.8213 82.953 85.2845C82.953 84.7473 82.8587 84.2338 82.6937 83.7434C82.5051 83.2997 82.2455 82.8795 81.939 82.5293" fill="#53C95A"/>
<path d="M87.9058 81.6189V85.7283C87.9058 86.0086 87.8114 86.2886 87.5992 86.4987C87.3869 86.6855 87.1276 86.8024 86.8445 86.8024H86.7503C86.1608 86.779 85.7129 86.3119 85.7363 85.7283V81.6189H83.166V85.518C83.166 86.0318 83.2604 86.522 83.449 86.989C83.614 87.4092 83.8733 87.7828 84.2034 88.1098C84.5337 88.4368 84.9344 88.67 85.3589 88.8334C85.8307 88.9968 86.3257 89.0903 86.8208 89.0903C87.316 89.0903 87.8114 88.9968 88.2594 88.8334C88.6839 88.67 89.0847 88.4366 89.4148 88.1098C89.7449 87.7828 90.0043 87.4092 90.1695 86.989C90.3581 86.522 90.4525 86.0085 90.4525 85.518V81.6189H87.9058Z" fill="#53C95A"/>
<path d="M97.2207 82.2727V81.6189H90.7362V83.7205H93.5189L90.4062 88.2734V88.9272H97.2444V86.8256H94.1319L97.2207 82.2727Z" fill="#53C95A"/>
<path d="M103.828 78.865C103.828 78.5601 103.581 78.3127 103.276 78.3127C103.143 78.3127 103.022 78.3593 102.927 78.4369C102.729 78.5738 101.73 79.3462 101.649 81.009C101.634 81.3118 101.868 81.5691 102.171 81.5838C102.18 81.5842 102.189 81.5844 102.198 81.5844C102.489 81.5844 102.732 81.3558 102.746 81.0622C102.8 79.9492 103.406 79.4465 103.529 79.3558C103.706 79.2641 103.828 79.0789 103.828 78.865H103.828Z" fill="#F57D40"/>
</g>
</g>
<defs>
<filter id="filter0_d_5002_231" x="42.4403" y="42.4413" width="84.1175" height="84.1172" filterUnits="userSpaceOnUse" color-interpolation-filters="sRGB">
<feFlood flood-opacity="0" result="BackgroundImageFix"/>
<feColorMatrix in="SourceAlpha" type="matrix" values="0 0 0 0 0 0 0 0 0 0 0 0 0 0 0 0 0 0 127 0" result="hardAlpha"/>
<feOffset/>
<feGaussianBlur stdDeviation="6.15291"/>
<feComposite in2="hardAlpha" operator="out"/>
<feColorMatrix type="matrix" values="0 0 0 0 0.111 0 0 0 0 0 0 0 0 0 0.37 0 0 0 0.25 0"/>
<feBlend mode="normal" in2="BackgroundImageFix" result="effect1_dropShadow_5002_231"/>
<feBlend mode="normal" in="SourceGraphic" in2="effect1_dropShadow_5002_231" result="shape"/>
</filter>
</defs>
</svg>
