<svg width="169" height="169" viewBox="0 0 169 169" fill="none" xmlns="http://www.w3.org/2000/svg">
<circle opacity="0.1" cx="84.5" cy="84.5" r="84.5" fill="#B1D5FF"/>
<circle opacity="0.2" cx="84.5001" cy="84.5001" r="64.8107" fill="#B1D5FF"/>
<circle opacity="0.3" cx="84.5001" cy="84.5001" r="43.4806" fill="#B1D5FF"/>
<g filter="url(#filter0_d_5002_253)">
<rect x="54.8008" y="54.7471" width="59.5055" height="59.5055" rx="29.5048" fill="#8FCD1F"/>
<circle cx="84.8665" cy="84.19" r="20.7649" fill="white"/>
<circle cx="84.9998" cy="84.167" r="18.6169" fill="#A7E92F"/>
<path fill-rule="evenodd" clip-rule="evenodd" d="M76.5735 73.925H76.5549C76.3085 73.925 76.0965 73.925 75.9256 73.9485C75.7441 73.9732 75.5692 74.0311 75.4274 74.1784C75.2857 74.3257 75.23 74.5074 75.2062 74.6959C75.1836 74.8721 75.1836 75.0938 75.1836 75.3499V77.0734C75.1836 77.3295 75.1836 77.5497 75.2062 77.7273C75.2313 77.9173 75.2857 78.0977 75.4274 78.245C75.5692 78.3923 75.7441 78.4501 75.9256 78.4748C76.0952 78.4983 76.3085 78.4983 76.5549 78.4983H78.3344C78.5808 78.4983 78.7928 78.4983 78.9637 78.4748C79.1452 78.4501 79.3201 78.3923 79.4619 78.245C79.6036 78.0977 79.6593 77.916 79.6832 77.7273C79.7057 77.5511 79.7057 77.3295 79.7057 77.0734V75.3499C79.7057 75.0938 79.7057 74.8735 79.6832 74.6959C79.658 74.506 79.6036 74.3257 79.4619 74.1784C79.3201 74.0311 79.1452 73.9732 78.9637 73.9485C78.7942 73.925 78.5808 73.925 78.3344 73.925H76.5735ZM76.5735 81.7926H76.5549C76.3085 81.7926 76.0965 81.7926 75.9256 81.816C75.7441 81.8422 75.5692 81.8986 75.4274 82.0459C75.2857 82.1932 75.23 82.375 75.2062 82.5635C75.1836 82.7397 75.1836 82.9614 75.1836 83.2174V93.4336C75.1836 93.6896 75.1836 93.9099 75.2062 94.0875C75.2313 94.2775 75.2857 94.4579 75.4274 94.6051C75.5692 94.7524 75.7441 94.8103 75.9256 94.835C76.0952 94.8584 76.3085 94.8584 76.5549 94.8584H78.3344C78.5808 94.8584 78.7928 94.8584 78.9637 94.835C79.1452 94.8089 79.3201 94.7524 79.4619 94.6051C79.6036 94.4579 79.6593 94.2761 79.6832 94.0875C79.7057 93.9113 79.7057 93.6896 79.7057 93.4336V83.2174C79.7057 82.9614 79.7057 82.7411 79.6832 82.5635C79.658 82.3736 79.6036 82.1932 79.4619 82.0459C79.3201 81.8986 79.1452 81.8408 78.9637 81.816C78.7942 81.7926 78.5808 81.7926 78.3344 81.7926H76.5735ZM84.3695 73.925H86.3277C92.135 73.925 96.5352 78.3827 96.5352 84.3931C96.5352 90.4036 92.135 94.8611 86.3277 94.8611H84.3695C84.1231 94.8611 83.9111 94.8611 83.7401 94.8378C83.5573 94.8116 83.3837 94.7552 83.242 94.6079C83.1002 94.4605 83.0445 94.2789 83.0207 94.0903C82.9981 93.9141 82.9982 93.6924 82.9982 93.4364V91.7541C82.9982 91.498 82.9981 91.2778 83.0207 91.1002C83.0445 90.9102 83.1002 90.7298 83.242 90.5826C83.3837 90.4352 83.5587 90.3774 83.7401 90.3526C83.9097 90.3293 84.1231 90.3293 84.3695 90.3293H86.3277C88.0078 90.3293 89.4255 89.7153 90.4231 88.6759C91.4208 87.6379 92.0131 86.1567 92.0131 84.3945C92.0131 82.6324 91.4195 81.1511 90.4231 80.1131C89.4255 79.0738 88.0078 78.4598 86.3291 78.4598H84.3708C84.1243 78.4598 83.9124 78.4598 83.7415 78.4363C83.5587 78.4116 83.385 78.3537 83.2433 78.2065C83.1016 78.0592 83.0459 77.8774 83.0221 77.6888C82.9995 77.5126 82.9995 77.2909 82.9995 77.0349V75.3526C82.9995 75.0966 82.9995 74.8763 83.0221 74.6987C83.0459 74.5088 83.1016 74.3284 83.2433 74.1811C83.385 74.0338 83.56 73.976 83.7415 73.9512C83.9111 73.9278 84.1243 73.9278 84.3708 73.9278L84.3695 73.925Z" fill="#1B1B1C"/>
</g>
<defs>
<filter id="filter0_d_5002_253" x="42.495" y="42.4413" width="84.1175" height="84.1172" filterUnits="userSpaceOnUse" color-interpolation-filters="sRGB">
<feFlood flood-opacity="0" result="BackgroundImageFix"/>
<feColorMatrix in="SourceAlpha" type="matrix" values="0 0 0 0 0 0 0 0 0 0 0 0 0 0 0 0 0 0 127 0" result="hardAlpha"/>
<feOffset/>
<feGaussianBlur stdDeviation="6.15291"/>
<feComposite in2="hardAlpha" operator="out"/>
<feColorMatrix type="matrix" values="0 0 0 0 0.111 0 0 0 0 0 0 0 0 0 0.37 0 0 0 0.25 0"/>
<feBlend mode="normal" in2="BackgroundImageFix" result="effect1_dropShadow_5002_253"/>
<feBlend mode="normal" in="SourceGraphic" in2="effect1_dropShadow_5002_253" result="shape"/>
</filter>
</defs>
</svg>
