<svg width="169" height="169" viewBox="0 0 169 169" fill="none" xmlns="http://www.w3.org/2000/svg">
<circle opacity="0.1" cx="84.5" cy="84.5" r="84.5" fill="#B1D5FF"/>
<circle opacity="0.2" cx="84.5001" cy="84.5001" r="64.8107" fill="#B1D5FF"/>
<circle opacity="0.3" cx="84.5001" cy="84.5001" r="43.4806" fill="#B1D5FF"/>
<g filter="url(#filter0_d_5002_223)">
<rect x="54.7461" y="54.7471" width="59.5055" height="59.5055" rx="29.5048" fill="url(#paint0_linear_5002_223)"/>
<circle cx="84.8118" cy="84.19" r="20.7649" fill="white"/>
<path fill-rule="evenodd" clip-rule="evenodd" d="M85.7984 85.6456C89.1706 86.1633 89.6264 88.1475 89.899 89.9942L89.9444 90.3091L89.9754 90.5234L90.1396 91.6102C90.4608 93.6853 91.131 97.9926 91.131 100.24C91.131 100.802 91.0813 101.233 90.9905 101.47C90.8392 101.835 90.3984 102.186 89.7896 102.478C88.3167 102.838 86.7771 103.033 85.1912 103.033C85.0233 103.033 84.8581 103.025 84.6923 103.02C84.0514 102.839 83.5697 102.537 83.3146 102.124C82.5445 100.877 82.4981 98.0997 82.4827 94.854L82.4809 94.4776L82.4747 93.5047C82.4496 90.0687 82.4281 87.1061 83.6834 86.043C84.1696 85.6341 84.8604 85.4987 85.7984 85.6456ZM78.4463 93.1264C79.1771 93.0855 79.647 96.6599 79.7415 99.3704C79.8076 101.257 79.6084 102.034 79.2902 102.312C78.93 102.193 78.5761 102.063 78.2273 101.923C77.9946 101.502 77.8168 100.841 77.7038 99.9747C77.3589 97.2523 77.6585 93.1744 78.4463 93.1264ZM96.7666 98.4679C96.721 98.7161 96.6567 98.908 96.5775 99.0698C95.9527 99.5684 95.296 100.026 94.6088 100.438C94.3899 100.475 94.1955 100.449 94.1005 100.289C93.1897 98.6979 92.8478 93.7053 93.7292 93.2707C94.8783 92.7187 96.937 97.6048 96.7666 98.4679ZM84.9192 65.5618C95.1796 65.5618 103.524 73.6422 103.754 83.6971L103.758 84.0446V84.2053C103.74 88.7471 102.059 92.9025 99.2897 96.1187C99.1893 96.0686 99.0061 95.9045 98.6741 95.4107C98.3307 94.9143 95.3685 90.381 95.3685 85.1851C95.3685 84.1655 96.8465 82.5726 98.1544 81.1744C99.1321 80.1223 100.058 79.1299 100.399 78.3499C100.834 77.3434 100.53 76.6407 100.049 76.4025C99.6139 76.1908 98.9607 76.3452 98.5023 77.1548C97.7501 78.4651 97.5091 78.71 96.4119 79.5867C95.3322 80.4629 93.6158 81.345 93.6158 80.2032C93.6158 79.5867 94.5718 78.1904 95.0441 77.2117C95.5264 76.2221 95.0066 75.5057 94.0106 75.5057C92.0549 75.5057 90.7567 77.9832 90.7567 78.8415C90.7567 79.6991 91.1751 79.8212 91.1751 80.82C91.1751 81.8262 89.0293 83.1314 87.008 83.1314C85.0619 83.1314 83.9334 82.7397 83.4658 81.6361L83.4061 81.4812L83.2709 81.0836C82.7914 79.69 82.4475 78.6793 81.8487 77.6231C81.5308 77.0645 81.0402 76.6773 80.616 76.3366C80.0615 75.9083 79.7738 75.5139 79.7138 75.2198C79.6584 74.928 79.6287 74.3781 80.5765 73.1105C81.5224 71.8501 81.655 70.8979 81.1817 70.4066C81.0101 70.2318 80.7176 70.1198 80.342 70.1198C79.6776 70.1198 78.7545 70.4699 77.8031 71.4315C76.3242 72.9385 77.1638 74.3693 77.1638 74.9974C77.1638 75.6251 76.8929 75.9801 76.0054 76.8341C75.1114 77.6918 74.8028 78.4272 74.7006 81.3827C74.6614 82.9056 74.3917 83.7822 74.1496 84.5595C73.9404 85.2408 73.748 85.8813 73.7376 86.8067C73.721 87.8323 73.8927 88.4932 74.093 89.2557C74.2897 89.9605 74.4986 90.7681 74.6324 92.1191C74.8453 94.2103 74.7713 95.9769 74.3843 97.7824L74.281 98.2348L74.2568 98.3647C74.1776 98.6821 74.0834 99.0674 73.956 99.2118C69.1876 95.8437 66.0781 90.3432 66.0781 84.1254C66.0781 73.8739 74.5132 65.5618 84.9192 65.5618Z" fill="#F14635"/>
</g>
<defs>
<filter id="filter0_d_5002_223" x="42.4403" y="42.4413" width="84.1175" height="84.1172" filterUnits="userSpaceOnUse" color-interpolation-filters="sRGB">
<feFlood flood-opacity="0" result="BackgroundImageFix"/>
<feColorMatrix in="SourceAlpha" type="matrix" values="0 0 0 0 0 0 0 0 0 0 0 0 0 0 0 0 0 0 127 0" result="hardAlpha"/>
<feOffset/>
<feGaussianBlur stdDeviation="6.15291"/>
<feComposite in2="hardAlpha" operator="out"/>
<feColorMatrix type="matrix" values="0 0 0 0 0.111 0 0 0 0 0 0 0 0 0 0.37 0 0 0 0.25 0"/>
<feBlend mode="normal" in2="BackgroundImageFix" result="effect1_dropShadow_5002_223"/>
<feBlend mode="normal" in="SourceGraphic" in2="effect1_dropShadow_5002_223" result="shape"/>
</filter>
<linearGradient id="paint0_linear_5002_223" x1="84.4988" y1="54.7471" x2="84.4988" y2="114.253" gradientUnits="userSpaceOnUse">
<stop stop-color="#FF5742"/>
<stop offset="1" stop-color="#FE4741"/>
</linearGradient>
</defs>
</svg>
