<svg width="169" height="169" viewBox="0 0 169 169" fill="none" xmlns="http://www.w3.org/2000/svg">
<circle opacity="0.1" cx="84.5" cy="84.5" r="84.5" fill="#B1D5FF"/>
<circle opacity="0.2" cx="84.5001" cy="84.5001" r="64.8107" fill="#B1D5FF"/>
<circle opacity="0.3" cx="84.5001" cy="84.5001" r="43.4806" fill="#B1D5FF"/>
<g filter="url(#filter0_d_5002_270)">
<rect x="54.8008" y="54.7471" width="59.5055" height="59.5055" rx="29.5048" fill="#DC3416"/>
<circle cx="84.8665" cy="84.19" r="20.7649" fill="white"/>
<circle cx="84.9998" cy="84.167" r="18.6169" fill="#FC3F1D"/>
<path d="M87.0659 75.9581H85.2445C81.9055 75.9581 80.1492 77.6493 80.1492 80.1428C80.1492 82.9615 81.3634 84.2822 83.8569 85.9753L85.9167 87.363L79.9974 96.2074H75.5742L80.8864 88.2954C77.8312 86.1054 76.1163 83.9786 76.1163 80.3813C76.1163 75.8714 79.2602 72.7925 85.2229 72.7925H91.1421V96.1858H87.0659V75.9581Z" fill="white"/>
</g>
<defs>
<filter id="filter0_d_5002_270" x="42.495" y="42.4413" width="84.1175" height="84.117" filterUnits="userSpaceOnUse" color-interpolation-filters="sRGB">
<feFlood flood-opacity="0" result="BackgroundImageFix"/>
<feColorMatrix in="SourceAlpha" type="matrix" values="0 0 0 0 0 0 0 0 0 0 0 0 0 0 0 0 0 0 127 0" result="hardAlpha"/>
<feOffset/>
<feGaussianBlur stdDeviation="6.15291"/>
<feComposite in2="hardAlpha" operator="out"/>
<feColorMatrix type="matrix" values="0 0 0 0 0.111 0 0 0 0 0 0 0 0 0 0.37 0 0 0 0.25 0"/>
<feBlend mode="normal" in2="BackgroundImageFix" result="effect1_dropShadow_5002_270"/>
<feBlend mode="normal" in="SourceGraphic" in2="effect1_dropShadow_5002_270" result="shape"/>
</filter>
</defs>
</svg>
