<svg width="25" height="25" viewBox="0 0 25 25" fill="none" xmlns="http://www.w3.org/2000/svg">
<path d="M12.4987 2.08435C6.75911 2.08435 2.08203 6.76143 2.08203 12.501C2.08203 18.2385 6.75911 22.9156 12.4987 22.9156C18.2383 22.9156 22.9154 18.2385 22.9154 12.5C22.9154 6.76039 18.2383 2.08435 12.4987 2.08435ZM12.4987 17.7083C12.3559 17.7184 12.2126 17.699 12.0776 17.6513C11.9427 17.6036 11.819 17.5287 11.7143 17.4311C11.6095 17.3335 11.526 17.2154 11.4689 17.0842C11.4118 16.9529 11.3823 16.8113 11.3823 16.6682C11.3823 16.5251 11.4118 16.3835 11.4689 16.2522C11.526 16.121 11.6095 16.0029 11.7143 15.9053C11.819 15.8077 11.9427 15.7328 12.0776 15.6851C12.2126 15.6374 12.3559 15.618 12.4987 15.6281C12.7618 15.6467 13.0081 15.7644 13.188 15.9574C13.3678 16.1504 13.4678 16.4044 13.4678 16.6682C13.4678 16.932 13.3678 17.186 13.188 17.379C13.0081 17.572 12.7618 17.6897 12.4987 17.7083ZM13.5414 13.5416C13.5414 13.8182 13.4316 14.0834 13.236 14.2789C13.0405 14.4745 12.7752 14.5843 12.4987 14.5844C12.2222 14.5843 11.9569 14.4745 11.7614 14.2789C11.5658 14.0834 11.456 13.8182 11.456 13.5416V8.33539C11.456 8.05885 11.5658 7.79363 11.7614 7.59809C11.9569 7.40254 12.2222 7.29268 12.4987 7.29268C12.7752 7.29268 13.0405 7.40254 13.236 7.59809C13.4316 7.79363 13.5414 8.05885 13.5414 8.33539V13.5416Z" fill="white"/>
</svg>
