<svg width="25" height="25" viewBox="0 0 25 25" fill="none" xmlns="http://www.w3.org/2000/svg">
<g id="icon">
<g id="Group">
<path id="Vector" d="M12.4997 2.08447C6.76009 2.08447 2.08301 6.76156 2.08301 12.5011C2.08301 18.2386 6.76009 22.9157 12.4997 22.9157C18.2393 22.9157 22.9163 18.2386 22.9163 12.5001C22.9163 6.76051 18.2393 2.08447 12.4997 2.08447ZM12.4997 17.7084C12.3569 17.7185 12.2136 17.6991 12.0786 17.6515C11.9437 17.6038 11.82 17.5288 11.7152 17.4312C11.6105 17.3337 11.527 17.2156 11.4699 17.0843C11.4128 16.9531 11.3833 16.8115 11.3833 16.6683C11.3833 16.5252 11.4128 16.3836 11.4699 16.2523C11.527 16.1211 11.6105 16.003 11.7152 15.9054C11.82 15.8079 11.9437 15.7329 12.0786 15.6852C12.2136 15.6375 12.3569 15.6181 12.4997 15.6282C12.7628 15.6469 13.0091 15.7645 13.1889 15.9575C13.3688 16.1505 13.4687 16.4045 13.4687 16.6683C13.4687 16.9321 13.3688 17.1861 13.1889 17.3791C13.0091 17.5721 12.7628 17.6898 12.4997 17.7084ZM13.5424 13.5418C13.5424 13.8183 13.4325 14.0835 13.237 14.2791C13.0414 14.4746 12.7762 14.5845 12.4997 14.5845C12.2231 14.5845 11.9579 14.4746 11.7624 14.2791C11.5668 14.0835 11.457 13.8183 11.457 13.5418V8.33551C11.457 8.05897 11.5668 7.79375 11.7624 7.59821C11.9579 7.40266 12.2231 7.29281 12.4997 7.29281C12.7762 7.29281 13.0414 7.40266 13.237 7.59821C13.4325 7.79375 13.5424 8.05897 13.5424 8.33551V13.5418Z" fill="white"/>
</g>
</g>
</svg>
