<svg width="37" height="37" viewBox="0 0 37 37" fill="none" xmlns="http://www.w3.org/2000/svg">
<path d="M36.0478 18.5C36.0478 28.1914 28.1914 36.0478 18.5 36.0478C8.80862 36.0478 0.952193 28.1914 0.952193 18.5C0.952193 8.80861 8.80862 0.952193 18.5 0.952193C28.1914 0.952193 36.0478 8.80861 36.0478 18.5Z" fill="#E01424" stroke="white" stroke-width="1.90439"/>
<path d="M26.8677 19.4124C26.62 19.4124 26.4245 19.3342 26.2811 19.1778C26.1508 19.0214 26.0726 18.7999 26.0465 18.5131L25.46 11.0448C25.4209 10.5625 25.5252 10.1781 25.7728 9.89131C26.0205 9.59154 26.3854 9.44165 26.8677 9.44165C27.3369 9.44165 27.6888 9.59154 27.9234 9.89131C28.171 10.1781 28.2753 10.5625 28.2362 11.0448L27.6497 18.5131C27.6367 18.7999 27.5584 19.0214 27.4151 19.1778C27.2847 19.3342 27.1023 19.4124 26.8677 19.4124ZM26.8677 23.479C26.4245 23.479 26.0661 23.3421 25.7924 23.0684C25.5317 22.7947 25.4014 22.4428 25.4014 22.0127C25.4014 21.5956 25.5317 21.2567 25.7924 20.996C26.0661 20.7223 26.4245 20.5855 26.8677 20.5855C27.3238 20.5855 27.6758 20.7223 27.9234 20.996C28.1841 21.2567 28.3144 21.5956 28.3144 22.0127C28.3144 22.4428 28.1841 22.7947 27.9234 23.0684C27.6758 23.3421 27.3238 23.479 26.8677 23.479Z" fill="white"/>
<path d="M15.4719 23.5388C15.0809 23.5388 14.7811 23.4346 14.5726 23.226C14.364 23.0045 14.2598 22.6917 14.2598 22.2876V14.8975C14.2598 14.4935 14.364 14.1872 14.5726 13.9786C14.7811 13.7701 15.0744 13.6658 15.4524 13.6658C15.8303 13.6658 16.1236 13.7701 16.3321 13.9786C16.5407 14.1872 16.6449 14.4935 16.6449 14.8975V16.2269L16.4299 15.7382C16.7166 15.0474 17.1598 14.526 17.7593 14.1741C18.3719 13.8092 19.0627 13.6267 19.8317 13.6267C20.6007 13.6267 21.2328 13.7701 21.7281 14.0568C22.2234 14.3436 22.5948 14.7802 22.8425 15.3667C23.0901 15.9402 23.2139 16.6701 23.2139 17.5564V22.2876C23.2139 22.6917 23.1097 23.0045 22.9011 23.226C22.6926 23.4346 22.3928 23.5388 22.0018 23.5388C21.6108 23.5388 21.3045 23.4346 21.0829 23.226C20.8744 23.0045 20.7701 22.6917 20.7701 22.2876V17.6737C20.7701 16.9308 20.6267 16.3899 20.34 16.051C20.0663 15.7121 19.6362 15.5427 19.0497 15.5427C18.3328 15.5427 17.7593 15.7708 17.3292 16.2269C16.9121 16.6701 16.7036 17.2631 16.7036 18.006V22.2876C16.7036 23.1218 16.293 23.5388 15.4719 23.5388Z" fill="white"/>
<path d="M10.4341 17.4819C10.6817 17.4819 10.8772 17.5601 11.0206 17.7165C11.151 17.8729 11.2292 18.0944 11.2552 18.3812L11.8417 25.8495C11.8808 26.3317 11.7766 26.7162 11.5289 27.003C11.2813 27.3027 10.9163 27.4526 10.4341 27.4526C9.96488 27.4526 9.61297 27.3027 9.37837 27.003C9.13073 26.7162 9.02646 26.3317 9.06556 25.8495L9.65208 18.3812C9.66511 18.0944 9.74331 17.8729 9.88668 17.7165C10.017 17.5601 10.1995 17.4819 10.4341 17.4819ZM10.4341 13.4153C10.8772 13.4153 11.2357 13.5522 11.5094 13.8259C11.7701 14.0996 11.9004 14.4515 11.9004 14.8816C11.9004 15.2987 11.7701 15.6376 11.5094 15.8983C11.2357 16.172 10.8772 16.3088 10.4341 16.3088C9.97792 16.3088 9.62601 16.172 9.37837 15.8983C9.11769 15.6376 8.98736 15.2987 8.98736 14.8816C8.98736 14.4515 9.11769 14.0996 9.37837 13.8259C9.62601 13.5522 9.97792 13.4153 10.4341 13.4153Z" fill="white"/>
</svg>
