<svg width="25" height="25" viewBox="0 0 25 25" fill="none" xmlns="http://www.w3.org/2000/svg">
<g id="icon">
<g id="Group">
<path id="Vector" d="M12.4987 2.08447C6.75911 2.08447 2.08203 6.76156 2.08203 12.5011C2.08203 18.2386 6.75911 22.9157 12.4987 22.9157C18.2383 22.9157 22.9154 18.2386 22.9154 12.5001C22.9154 6.76051 18.2383 2.08447 12.4987 2.08447ZM12.4987 17.7084C12.3559 17.7185 12.2126 17.6991 12.0776 17.6515C11.9427 17.6038 11.819 17.5288 11.7143 17.4312C11.6095 17.3337 11.526 17.2156 11.4689 17.0843C11.4118 16.9531 11.3823 16.8115 11.3823 16.6683C11.3823 16.5252 11.4118 16.3836 11.4689 16.2523C11.526 16.1211 11.6095 16.003 11.7143 15.9054C11.819 15.8079 11.9427 15.7329 12.0776 15.6852C12.2126 15.6375 12.3559 15.6181 12.4987 15.6282C12.7618 15.6469 13.0081 15.7645 13.188 15.9575C13.3678 16.1505 13.4678 16.4045 13.4678 16.6683C13.4678 16.9321 13.3678 17.1861 13.188 17.3791C13.0081 17.5721 12.7618 17.6898 12.4987 17.7084ZM13.5414 13.5418C13.5414 13.8183 13.4316 14.0835 13.236 14.2791C13.0405 14.4746 12.7752 14.5845 12.4987 14.5845C12.2222 14.5845 11.9569 14.4746 11.7614 14.2791C11.5658 14.0835 11.456 13.8183 11.456 13.5418V8.33551C11.456 8.05897 11.5658 7.79375 11.7614 7.59821C11.9569 7.40266 12.2222 7.29281 12.4987 7.29281C12.7752 7.29281 13.0405 7.40266 13.236 7.59821C13.4316 7.79375 13.5414 8.05897 13.5414 8.33551V13.5418Z" fill="white"/>
</g>
</g>
</svg>
