<svg width="20" height="20" viewBox="0 0 20 20" fill="none" xmlns="http://www.w3.org/2000/svg">
<path d="M11.3 5.75C11.3 4.78517 10.4924 4 9.5 4C8.5076 4 7.7 4.78517 7.7 5.75C7.7 6.71483 8.5076 7.5 9.5 7.5C10.4924 7.5 11.3 6.71483 11.3 5.75ZM9.5 6.33333C9.34551 6.32661 9.19964 6.26222 9.09277 6.15356C8.98589 6.0449 8.92624 5.90035 8.92624 5.75C8.92624 5.59965 8.98589 5.4551 9.09277 5.34644C9.19964 5.23778 9.34551 5.17339 9.5 5.16667C9.65449 5.17339 9.80036 5.23778 9.90723 5.34644C10.0141 5.4551 10.0738 5.59965 10.0738 5.75C10.0738 5.90035 10.0141 6.0449 9.90723 6.15356C9.80036 6.26222 9.65449 6.32661 9.5 6.33333ZM7.1 11C7.25913 11 7.41174 10.9385 7.52426 10.8291C7.63679 10.7197 7.7 10.5714 7.7 10.4167C7.7 9.90042 8.093 8.85975 8.3534 8.66667H10.6466C10.907 8.85975 11.3 9.90042 11.3 10.4167C11.3 10.5714 11.3632 10.7197 11.4757 10.8291C11.5883 10.9385 11.7409 11 11.9 11C12.0591 11 12.2117 10.9385 12.3243 10.8291C12.4368 10.7197 12.5 10.5714 12.5 10.4167C12.5 9.73708 11.9384 7.5 10.7 7.5H8.3C7.0616 7.5 6.5 9.73708 6.5 10.4167C6.5 10.5714 6.56321 10.7197 6.67574 10.8291C6.78826 10.9385 6.94087 11 7.1 11Z" fill="white"/>
<path d="M16.8625 13.6625C16.6728 13.2022 16.3085 12.8359 15.8493 12.6438C15.39 12.4517 14.8734 12.4494 14.4125 12.6375C13.95 12.8312 13.5875 13.1875 13.3937 13.65C13.3812 13.6812 13.3687 13.7187 13.3562 13.75H11.2688C11.2625 13.7187 11.25 13.6937 11.2375 13.6625C11.048 13.2023 10.684 12.836 10.225 12.6437C10.1937 12.6312 10.1562 12.6187 10.125 12.6062L10.1375 10.6437C10.1375 10.3 9.8625 10.0187 9.5125 10.0125C9.16875 10.0125 8.8875 10.2937 8.8875 10.6375L8.875 12.6062C8.84375 12.6125 8.81875 12.625 8.7875 12.6375C8.325 12.8312 7.9625 13.1875 7.76875 13.65C7.75625 13.6812 7.74375 13.7187 7.73125 13.75H5.64375C5.6375 13.7187 5.625 13.6937 5.6125 13.6625C5.42295 13.2021 5.05861 12.8357 4.59935 12.6436C4.14009 12.4514 3.62338 12.4492 3.1625 12.6375C2.7 12.8312 2.3375 13.1875 2.14375 13.65C2.04375 13.8875 2 14.1312 2 14.3687C2 15.1062 2.43125 15.8062 3.15 16.1062C3.60986 16.2965 4.12601 16.2987 4.5875 16.1125C5.05 15.9187 5.4125 15.5625 5.60625 15.1C5.61875 15.0687 5.63125 15.0312 5.64375 15H7.7375C7.90625 15.4812 8.26875 15.8937 8.775 16.1062C9.23486 16.2965 9.75101 16.2987 10.2125 16.1125C10.675 15.9187 11.0375 15.5625 11.2313 15.1C11.2438 15.0687 11.2563 15.0312 11.2688 15H13.3625C13.5312 15.4812 13.8938 15.8937 14.4 16.1062C14.8599 16.2965 15.376 16.2987 15.8375 16.1125C16.2978 15.9229 16.6642 15.5586 16.8564 15.0993C17.0485 14.64 17.0507 14.1233 16.8625 13.6625ZM4.45 14.6187C4.3875 14.7687 4.26875 14.8875 4.1125 14.9562C3.95625 15.0187 3.7875 15.0125 3.63125 14.95C3.5553 14.9185 3.48636 14.8722 3.42847 14.8139C3.37058 14.7555 3.32488 14.6862 3.29405 14.61C3.26322 14.5338 3.24786 14.4522 3.24889 14.37C3.24991 14.2878 3.26728 14.2066 3.3 14.1312C3.3311 14.055 3.37717 13.9857 3.43547 13.9276C3.49377 13.8695 3.56313 13.8236 3.63945 13.7928C3.71578 13.7619 3.79751 13.7466 3.87983 13.7478C3.96215 13.7491 4.04339 13.7668 4.11875 13.8C4.26875 13.8625 4.3875 13.9812 4.45625 14.1375C4.4875 14.2125 4.5 14.2937 4.5 14.375C4.5 14.4562 4.4875 14.5375 4.45 14.6187ZM10.075 14.6187C10.0125 14.7687 9.89375 14.8875 9.7375 14.9562C9.58125 15.0187 9.4125 15.0125 9.25625 14.95C9.18067 14.918 9.11214 14.8715 9.05457 14.813C8.997 14.7546 8.95153 14.6854 8.92076 14.6093C8.88999 14.5332 8.87452 14.4519 8.87525 14.3698C8.87598 14.2878 8.89288 14.2067 8.925 14.1312C8.9561 14.055 9.00217 13.9857 9.06047 13.9276C9.11877 13.8695 9.18813 13.8236 9.26445 13.7928C9.34078 13.7619 9.42251 13.7466 9.50483 13.7478C9.58715 13.7491 9.66839 13.7668 9.74375 13.8C9.89375 13.8625 10.0125 13.9812 10.0813 14.1375C10.1125 14.2125 10.125 14.2937 10.125 14.375C10.125 14.4562 10.1125 14.5375 10.075 14.6187ZM15.7 14.6187C15.6375 14.7687 15.5187 14.8875 15.3625 14.9562C15.2062 15.0187 15.0375 15.0125 14.8813 14.95C14.8057 14.918 14.7371 14.8715 14.6796 14.813C14.622 14.7546 14.5765 14.6854 14.5458 14.6093C14.515 14.5332 14.4995 14.4519 14.5002 14.3698C14.501 14.2878 14.5179 14.2067 14.55 14.1312C14.5811 14.055 14.6272 13.9857 14.6855 13.9276C14.7438 13.8695 14.8131 13.8236 14.8895 13.7928C14.9658 13.7619 15.0475 13.7466 15.1298 13.7478C15.2122 13.7491 15.2934 13.7668 15.3687 13.8C15.5187 13.8625 15.6375 13.9812 15.7063 14.1375C15.7688 14.2937 15.7688 14.4625 15.7 14.6187Z" fill="white"/>
</svg>
